<svg width="24" height="24" viewBox="0 0 24 24" fill="none" xmlns="http://www.w3.org/2000/svg">
<path d="M6.28669 3C4.46601 3 3 4.46601 3 6.28669V17.7133C3 19.534 4.46601 21 6.28669 21H12.4798V13.9631H10.6191V11.4296H12.4798V9.26512C12.4798 7.56457 13.5792 6.00319 16.1119 6.00319C17.1373 6.00319 17.8955 6.10163 17.8955 6.10163L17.8359 8.46751C17.8359 8.46751 17.0626 8.4602 16.2187 8.4602C15.3054 8.4602 15.159 8.881 15.159 9.57958V11.4296H17.9085L17.7887 13.9631H15.159V21H17.7133C19.534 21 21 19.534 21 17.7133V6.2867C21 4.46602 19.534 3.00002 17.7133 3.00002H6.28667L6.28669 3Z" fill="#6C6E74"/>
</svg>
