<svg width="24" height="24" viewBox="0 0 24 24" fill="none" xmlns="http://www.w3.org/2000/svg">
<path d="M21 8.97056V18.9877C20.9995 19.5212 20.7886 20.0328 20.4136 20.41C20.0387 20.7873 19.5303 20.9995 19 21H15.6667C15.313 21 14.9739 20.8587 14.7239 20.6071C14.4738 20.3555 14.3333 20.0143 14.3333 19.6585V15.9693C14.3333 15.7914 14.2631 15.6208 14.1381 15.495C14.013 15.3692 13.8435 15.2985 13.6667 15.2985H10.3333C10.1565 15.2985 9.98695 15.3692 9.86193 15.495C9.73691 15.6208 9.66667 15.7914 9.66667 15.9693V19.6585C9.66667 20.0143 9.52619 20.3555 9.27614 20.6071C9.02609 20.8587 8.68696 21 8.33333 21H5C4.46973 20.9995 3.96133 20.7873 3.58637 20.41C3.21141 20.0328 3.00053 19.5212 3 18.9877V8.97056C3.0005 8.73891 3.06033 8.51129 3.17372 8.30968C3.2871 8.10806 3.45022 7.93925 3.64733 7.81954L11.314 3.19128C11.5213 3.06612 11.7584 3 12.0002 3C12.2419 3 12.4791 3.06612 12.6863 3.19128L20.353 7.81954C20.55 7.93929 20.7131 8.10812 20.8264 8.30973C20.9398 8.51135 20.9995 8.73894 21 8.97056Z" fill="#6C6E74"/>
</svg>
