<svg width="24" height="24" viewBox="0 0 24 24" fill="none" xmlns="http://www.w3.org/2000/svg">
<path d="M6.85936 21V8.85543H2.82275V21H6.85936ZM4.84158 7.1963C6.24921 7.1963 7.1254 6.26374 7.1254 5.09835C7.09917 3.90668 6.24926 3 4.86829 3C3.48753 3 2.58459 3.9067 2.58459 5.09835C2.58459 6.26379 3.46056 7.1963 4.81522 7.1963H4.84145H4.84158ZM9.0936 21H13.1302V14.2179C13.1302 13.8549 13.1564 13.4923 13.263 13.2328C13.5548 12.5076 14.219 11.7565 15.3341 11.7565C16.7948 11.7565 17.3791 12.8702 17.3791 14.5028V20.9999H21.4155V14.0363C21.4155 10.306 19.424 8.57031 16.7682 8.57031C14.5906 8.57031 13.6345 9.78751 13.1034 10.6165H13.1303V8.85518H9.09369C9.14667 9.99476 9.09369 20.9997 9.09369 20.9997L9.0936 21Z" fill="#6C6E74"/>
</svg>
