<svg width="181px" height="32px" viewBox="0 0 181 32" version="1.1" xmlns="http://www.w3.org/2000/svg"  aria-labelledby="matchbox-logo"><title id="matchbox-logo">Matchbox Logo</title><defs><polygon id="path-1" points="0 2.77555756e-16 22.468336 2.77555756e-16 22.468336 31.1779 0 31.1779"></polygon><polygon id="path-3" points="2.87964097e-16 2.77555756e-16 15.298613 2.77555756e-16 15.298613 31.17795 2.87964097e-16 31.17795"></polygon><polygon id="path-5" points="-1.94289029e-16 2.77555756e-16 15.2609244 2.77555756e-16 15.2609244 31.17795 -1.94289029e-16 31.17795"></polygon><polygon id="path-7" points="4.4408921e-16 3.88578059e-16 18.4824238 3.88578059e-16 18.4824238 31.178 4.4408921e-16 31.178"></polygon><polygon id="path-9" points="2.22044605e-16 -3.33066907e-16 7.2604837 -3.33066907e-16 7.2604837 10.3080358 2.22044605e-16 10.3080358"></polygon><polygon id="path-11" points="-5.13478149e-16 -6.10622664e-16 19.8351615 -6.10622664e-16 19.8351615 31.17785 -5.13478149e-16 31.17785"></polygon></defs><g id="Page-1" stroke="none" stroke-width="1" fill="none" fill-rule="evenodd"><g id="Artboard" transform="translate(-166.000000, -240.000000)"><g id="Group" transform="translate(166.000000, 240.000000)"><g id="Fill-1-Clipped" transform="translate(0.000000, 0.009114)"><mask id="mask-2" fill="white"><use href="#path-1"></use></mask><g id="path-1"></g><path d="M21.679929,-0.0001 C22.1922166,-0.0001 22.468336,0.2729 22.468336,0.7794 L22.468336,30.3984 C22.468336,30.9054 22.1922166,31.1779 21.679929,31.1779 L18.0140133,31.1779 C17.5017258,31.1779 17.2256063,30.9054 17.2256063,30.3984 L17.2256063,12.8609 L16.9494868,12.8609 L13.047403,30.4764 C12.9290661,30.9444 12.6529467,31.1779 12.1801047,31.1779 L10.2487857,31.1779 C9.77543802,31.1779 9.49982427,30.9444 9.38148736,30.4764 L5.47889785,12.8609 L5.20328411,12.8609 L5.20328411,30.3984 C5.20328411,30.9054 4.92716465,31.1779 4.41487708,31.1779 L0.788407029,31.1779 C0.27611946,31.1779 0,30.9054 0,30.3984 L0,0.7794 C0,0.2729 0.27611946,-0.0001 0.788407029,-0.0001 L5.99169114,-0.0001 C6.46453307,-0.0001 6.74014681,0.2339 6.85848373,0.7014 L11.2339152,20.1099 L15.6093466,0.7014 C15.7276835,0.2339 16.003803,-0.0001 16.4766449,-0.0001 L21.679929,-0.0001 Z" id="Fill-1" fill="#282828" fill-rule="nonzero" mask="url(#mask-2)"></path></g><g id="Group-6" transform="translate(51.054526, 0.009014)" fill="#282828" fill-rule="nonzero"><path d="M14.6500764,0 C15.069545,0 15.2604351,0.234 15.2604351,0.6235 L15.2604351,4.521 C15.2604351,4.9105 15.069545,5.1445 14.6500764,5.1445 L10.2243642,5.1445 L10.2243642,30.5545 C10.2243642,30.983 10.0334742,31.178 9.61400554,31.178 L5.64594002,31.178 C5.2646494,31.178 5.03558135,30.983 5.03558135,30.5545 L5.03558135,5.1445 L0.610358665,5.1445 C0.229068047,5.1445 3.81639165e-16,4.9105 3.81639165e-16,4.521 L3.81639165e-16,0.6235 C3.81639165e-16,0.234 0.229068047,0 0.610358665,0 L14.6500764,0 Z" id="Fill-4"></path></g><g id="Fill-7-Clipped" transform="translate(72.013264, 0.009114)"><mask id="mask-4" fill="white"><use href="#path-3"></use></mask><g id="path-3"></g><path d="M15.298613,9.82095 C15.298613,10.21095 15.069545,10.44445 14.6882544,10.44445 L10.8729009,10.44445 C10.4534323,10.44445 10.2625422,10.21095 10.2625422,9.82095 L10.2625422,6.70345 C10.2625422,5.68995 9.72853956,5.14445 8.73640082,5.14445 L6.75261279,5.14445 C5.7227855,5.14445 5.2264714,5.68995 5.2264714,6.70345 L5.2264714,24.47495 C5.2264714,25.52695 5.76096351,26.03345 6.75261279,26.03345 L8.73640082,26.03345 C9.72853956,26.03345 10.2625422,25.52695 10.2625422,24.47495 L10.2625422,21.35695 C10.2625422,20.96695 10.4534323,20.73345 10.8729009,20.73345 L14.6882544,20.73345 C15.069545,20.73345 15.298613,20.96695 15.298613,21.35695 L15.298613,25.56595 C15.298613,29.22945 13.3525136,31.17795 9.80489558,31.17795 L5.53189546,31.17795 C1.94561002,31.17795 2.87964097e-16,29.22945 2.87964097e-16,25.56595 L2.87964097e-16,5.61195 C2.87964097e-16,1.94845 1.94561002,-5e-05 5.53189546,-5e-05 L9.80489558,-5e-05 C13.3525136,-5e-05 15.298613,1.94845 15.298613,5.61195 L15.298613,9.82095 Z" id="Fill-7" fill="#282828" fill-rule="nonzero" mask="url(#mask-4)"></path></g><g id="Fill-10-Clipped" transform="translate(95.175423, 0.009114)"><mask id="mask-6" fill="white"><use href="#path-5"></use></mask><g id="path-5"></g><path d="M10.0721416,0.62345 C10.0721416,0.23395 10.3012096,-5e-05 10.6825003,-5e-05 L14.6118983,-5e-05 C15.0700344,-5e-05 15.2609244,0.23395 15.2609244,0.62345 L15.2609244,30.55445 C15.2609244,30.94445 15.0700344,31.17795 14.6118983,31.17795 L10.6825003,31.17795 C10.3012096,31.17795 10.0721416,30.94445 10.0721416,30.55445 L10.0721416,18.16145 L5.18829339,18.16145 L5.18829339,30.55445 C5.18829339,30.94445 4.9597148,31.17795 4.57793472,31.17795 L0.648536673,31.17795 C0.19089004,31.17795 -1.94289029e-16,30.94445 -1.94289029e-16,30.55445 L-1.94289029e-16,0.62345 C-1.94289029e-16,0.23395 0.19089004,-5e-05 0.648536673,-5e-05 L4.57793472,-5e-05 C4.9597148,-5e-05 5.18829339,0.23395 5.18829339,0.62345 L5.18829339,13.01695 L10.0721416,13.01695 L10.0721416,0.62345 Z" id="Fill-10" fill="#282828" fill-rule="nonzero" mask="url(#mask-6)"></path></g><path d="M128.693627,19.6174155 C128.693627,18.6097017 128.174558,18.0673161 127.097517,18.0673161 L123.466598,18.0673161 L123.466598,25.8948707 L127.097517,25.8948707 C128.13463,25.8948707 128.693627,25.3912624 128.693627,24.3447713 L128.693627,19.6174155 Z M128.693627,6.67473154 C128.693627,5.66701777 128.174558,5.12512926 127.097517,5.12512926 L123.466598,5.12512926 L123.466598,12.9521868 L127.097517,12.9521868 C128.13463,12.9521868 128.693627,12.4098011 128.693627,11.4408647 L128.693627,6.67473154 Z M134,12.7195227 C134,14.1537873 132.922959,15.2385586 131.486563,15.4712227 L131.486563,15.5482802 C132.922959,15.7809443 134,16.8662127 134,18.2999801 L134,25.4300398 C134,29.0726243 131.965191,31.01 128.214487,31.01 L118.638341,31.01 C118.23957,31.01 118,30.7773359 118,30.3895625 L118,0.62994034 C118,0.20338957 118.23957,0.01 118.638341,0.01 L128.214487,0.01 C131.965191,0.01 134,1.94737571 134,5.58996023 L134,12.7195227 Z" id="Fill-13" fill="#282828" fill-rule="nonzero"></path><path d="M149.239849,26.0112028 C150.279556,26.0112028 150.839951,25.5075945 150.839951,24.4611033 L150.839951,6.55889666 C150.839951,5.55118289 150.279556,5.00879723 149.239849,5.00879723 L146.919751,5.00879723 C145.87953,5.00879723 145.319648,5.55118289 145.319648,6.55889666 L145.319648,24.4611033 C145.319648,25.5075945 145.87953,26.0112028 146.919751,26.0112028 L149.239849,26.0112028 Z M140,5.58996023 C140,1.94737571 141.999872,0.01 145.759959,0.01 L150.239528,0.01 C153.999615,0.01 156,1.94737571 156,5.58996023 L156,25.4300398 C156,29.0726243 153.999615,31.01 150.239528,31.01 L145.759959,31.01 C141.999872,31.01 140,29.0726243 140,25.4300398 L140,5.58996023 Z" id="Fill-15" fill="#282828" fill-rule="nonzero"></path><g id="Fill-17-Clipped" transform="translate(161.408641, 0.009164)"><mask id="mask-8" fill="white"><use href="#path-7"></use></mask><g id="path-7"></g><path d="M18.3877556,30.2425 L14.2519622,20.157 L5.65210645,0.5455 C5.49762692,0.156 5.18916298,3.88578059e-16 4.76434427,3.88578059e-16 L0.90483159,3.88578059e-16 C0.287408593,3.88578059e-16 0.094804304,0.3895 0.326028476,0.935 L6.19228968,15.277 L0.094804304,30.2425 C-0.136914994,30.788 0.056184421,31.178 0.67360742,31.178 L4.64848462,31.178 C5.0728082,31.178 5.38176727,31.022 5.5362468,30.6325 L9.24078481,21.201 L12.9463131,30.6325 C13.1002975,31.022 13.4092566,31.178 13.8340753,31.178 L17.8089525,31.178 C18.4263755,31.178 18.6194749,30.788 18.3877556,30.2425" id="Fill-17" fill="#282828" fill-rule="nonzero" mask="url(#mask-8)"></path></g><g id="Fill-20-Clipped" transform="translate(173.254731, 0.000000)"><mask id="mask-10" fill="white"><use href="#path-9"></use></mask><g id="path-9"></g><path d="M7.16250413,0.904148438 C7.40198437,0.376760742 7.20241751,-0.000290039 6.56431526,-0.000290039 L2.57553662,-0.000290039 C2.13700124,-0.000290039 1.81820597,0.150530274 1.65804077,0.527581055 L0.137238961,4.18932422 C-0.05669909,4.65725391 -0.044929762,5.17884082 0.171523524,5.63806934 L2.2383198,10.0292608 C2.41588313,10.4058282 2.98388112,10.399544 3.15121025,10.018626 L7.16250413,0.904148438 Z" id="Fill-20" fill="#F20063" fill-rule="nonzero" mask="url(#mask-10)"></path></g><g id="Fill-23-Clipped" transform="translate(28.107563, 0.056764)"><mask id="mask-12" fill="white"><use href="#path-11"></use></mask><g id="path-11"></g><path d="M7.39785073,20.4215 L9.9051835,6.82 L12.5230822,20.4215 L7.39785073,20.4215 Z M19.8159077,30.515 L13.3131258,0.5455 C13.2347245,0.1555 12.9995207,-6.10622664e-16 12.6472176,-6.10622664e-16 L7.20235014,-6.10622664e-16 C6.84954444,-6.10622664e-16 6.61434064,0.1555 6.53644195,0.5455 L0.03365999,30.515 C-0.0839419097,30.944 0.111558684,31.178 0.542765649,31.178 L4.73421797,31.178 C5.08652109,31.178 5.28302683,30.983 5.36092553,30.632 L6.41884005,24.9425 L13.3930347,24.9425 L14.4881396,30.632 C14.5665409,30.983 14.762544,31.178 15.1148472,31.178 L19.2676014,31.178 C19.7375065,31.178 19.894309,30.944 19.8159077,30.515 L19.8159077,30.515 Z" id="Fill-23" fill="#282828" fill-rule="nonzero" mask="url(#mask-12)"></path></g></g></g></g></svg>
