<svg width="24" height="24" viewBox="0 0 24 24" fill="none" xmlns="http://www.w3.org/2000/svg">
<path fill-rule="evenodd" clip-rule="evenodd" d="M20 12C20 16.4183 16.4183 20 12 20C7.58172 20 4 16.4183 4 12C4 7.58172 7.58172 4 12 4C16.4183 4 20 7.58172 20 12ZM22 12C22 17.5228 17.5228 22 12 22C6.47715 22 2 17.5228 2 12C2 6.47715 6.47715 2 12 2C17.5228 2 22 6.47715 22 12ZM12.9922 6.54288C12.9922 5.99059 12.5445 5.54288 11.9922 5.54288C11.4399 5.54288 10.9922 5.99059 10.9922 6.54288V12.008V12.6224L11.5403 12.9L15.5295 14.9209C16.0222 15.1705 16.6239 14.9734 16.8734 14.4807C17.123 13.988 16.926 13.3863 16.4333 13.1367L12.9922 11.3936V6.54288Z" fill="#6C6E74"/>
</svg>
