<svg width="24" height="24" viewBox="0 0 24 24" fill="none" xmlns="http://www.w3.org/2000/svg">
<path d="M12.0708 4.27271H12.1932C13.3235 4.27683 19.0508 4.31808 20.595 4.73336C21.0618 4.8601 21.4872 5.10714 21.8286 5.44979C22.1701 5.79244 22.4156 6.2187 22.5407 6.68598C22.6796 7.20851 22.7772 7.90018 22.8432 8.61385L22.857 8.75686L22.8872 9.11438L22.8982 9.25739C22.9876 10.5142 22.9986 11.6913 23 11.9484V12.0516C22.9986 12.3183 22.9862 13.5752 22.8872 14.8842L22.8762 15.0286L22.8639 15.1716C22.7951 15.9582 22.6934 16.7392 22.5407 17.314C22.416 17.7815 22.1706 18.2079 21.8291 18.5507C21.4876 18.8934 21.062 19.1403 20.595 19.2666C18.9999 19.6957 12.9371 19.7259 12.0969 19.7273H11.9017C11.4768 19.7273 9.71942 19.719 7.8768 19.6558L7.64304 19.6475L7.52341 19.642L7.28827 19.6324L7.05313 19.6228C5.52678 19.5554 4.07332 19.4468 3.40365 19.2653C2.93679 19.139 2.51131 18.8923 2.16982 18.5499C1.82833 18.2074 1.58283 17.7812 1.4579 17.314C1.30527 16.7406 1.20351 15.9582 1.13476 15.1716L1.12376 15.0273L1.11276 14.8842C1.04489 13.9525 1.00729 13.0188 1 12.0846L1 11.9154C1.00275 11.6198 1.01375 10.5981 1.08801 9.47053L1.09763 9.3289L1.10176 9.25739L1.11276 9.11438L1.14301 8.75686L1.15676 8.61385C1.22276 7.90018 1.3204 7.20714 1.45928 6.68598C1.58399 6.21852 1.8294 5.79205 2.1709 5.44934C2.51241 5.10663 2.938 4.85972 3.40503 4.73336C4.07469 4.5546 5.52816 4.44459 7.0545 4.37584L7.28827 4.36621L7.52478 4.35796L7.64304 4.35384L7.87818 4.34421C9.18686 4.3021 10.4961 4.27872 11.8054 4.27408H12.0708V4.27271ZM9.80055 8.68673V15.3119L15.5168 12.0007L9.80055 8.68673Z" fill="#6C6E74"/>
</svg>
