<svg width="24" height="24" viewBox="0 0 24 24" fill="none" xmlns="http://www.w3.org/2000/svg">
<path fill-rule="evenodd" clip-rule="evenodd" d="M12 22C17.5228 22 22 17.5228 22 12C22 6.47715 17.5228 2 12 2C6.47715 2 2 6.47715 2 12C2 17.5228 6.47715 22 12 22ZM17.2071 9.77521C17.5976 9.38468 17.5976 8.75152 17.2071 8.36099C16.8166 7.97047 16.1834 7.97047 15.7929 8.36099L10.6362 13.5177L8.20713 11.0884C7.81662 10.6979 7.18345 10.6978 6.79292 11.0883C6.40238 11.4789 6.40236 12.112 6.79287 12.5026L9.92908 15.639C10.1166 15.8265 10.371 15.9319 10.6362 15.9319C10.9014 15.9319 11.1558 15.8265 11.3433 15.639L17.2071 9.77521Z" fill="#6C6E74"/>
</svg>
