<svg width="24" height="24" viewBox="0 0 24 24" fill="none" xmlns="http://www.w3.org/2000/svg">
<path fill-rule="evenodd" clip-rule="evenodd" d="M9 3C9 2.44772 8.55228 2 8 2C7.44772 2 7 2.44772 7 3V4H5C3.34315 4 2 5.34315 2 7V19C2 20.6569 3.34315 22 5 22H19C20.6569 22 22 20.6569 22 19V7C22 5.34315 20.6569 4 19 4H17V3C17 2.44772 16.5523 2 16 2C15.4477 2 15 2.44772 15 3V4H9V3ZM15 6H9V7C9 7.55228 8.55228 8 8 8C7.44772 8 7 7.55228 7 7V6H5C4.44772 6 4 6.44772 4 7V19C4 19.5523 4.44772 20 5 20H19C19.5523 20 20 19.5523 20 19V7C20 6.44771 19.5523 6 19 6H17V7C17 7.55228 16.5523 8 16 8C15.4477 8 15 7.55228 15 7V6ZM11.3428 10.8834C11.3428 11.4357 10.8951 11.8834 10.3428 11.8834H7.03756C6.48528 11.8834 6.03756 11.4357 6.03756 10.8834C6.03756 10.3311 6.48528 9.88341 7.03756 9.88341H10.3428C10.8951 9.88341 11.3428 10.3311 11.3428 10.8834ZM16.9629 14.8834C17.5152 14.8834 17.9629 14.4357 17.9629 13.8834C17.9629 13.3311 17.5152 12.8834 16.9629 12.8834H7.03763C6.48534 12.8834 6.03763 13.3311 6.03763 13.8834C6.03763 14.4357 6.48534 14.8834 7.03763 14.8834H16.9629ZM17.9629 16.8834C17.9629 17.4357 17.5152 17.8834 16.9629 17.8834H7.03763C6.48534 17.8834 6.03763 17.4357 6.03763 16.8834C6.03763 16.3311 6.48534 15.8834 7.03763 15.8834H16.9629C17.5152 15.8834 17.9629 16.3311 17.9629 16.8834Z" fill="#6C6E74"/>
</svg>
