<svg width="24" height="24" viewBox="0 0 24 24" fill="none" xmlns="http://www.w3.org/2000/svg">
<path d="M11.9976 8.99872C10.345 8.99872 8.99635 10.3474 8.99635 12C8.99635 13.6526 10.345 15.0013 11.9976 15.0013C13.6502 15.0013 14.9989 13.6526 14.9989 12C14.9989 10.3474 13.6502 8.99872 11.9976 8.99872ZM20.9992 12C20.9992 10.7572 21.0105 9.52558 20.9407 8.28499C20.8709 6.84402 20.5422 5.56515 19.4884 4.51144C18.4325 3.45548 17.1559 3.12901 15.7149 3.05921C14.472 2.98941 13.2405 3.00067 11.9999 3.00067C10.757 3.00067 9.52546 2.98941 8.28487 3.05921C6.84389 3.12901 5.56503 3.45773 4.51132 4.51144C3.45535 5.5674 3.12888 6.84402 3.05909 8.28499C2.98929 9.52783 3.00055 10.7594 3.00055 12C3.00055 13.2406 2.98929 14.4744 3.05909 15.715C3.12888 17.156 3.45761 18.4348 4.51132 19.4886C5.56728 20.5445 6.84389 20.871 8.28487 20.9408C9.52771 21.0106 10.7593 20.9993 11.9999 20.9993C13.2427 20.9993 14.4743 21.0106 15.7149 20.9408C17.1559 20.871 18.4347 20.5423 19.4884 19.4886C20.5444 18.4326 20.8709 17.156 20.9407 15.715C21.0127 14.4744 20.9992 13.2428 20.9992 12ZM11.9976 16.6179C9.44215 16.6179 7.37976 14.5555 7.37976 12C7.37976 9.44452 9.44215 7.38213 11.9976 7.38213C14.5531 7.38213 16.6155 9.44452 16.6155 12C16.6155 14.5555 14.5531 16.6179 11.9976 16.6179ZM16.8046 8.27148C16.208 8.27148 15.7261 7.78966 15.7261 7.193C15.7261 6.59635 16.208 6.11452 16.8046 6.11452C17.4013 6.11452 17.8831 6.59635 17.8831 7.193C17.8833 7.33468 17.8555 7.475 17.8014 7.60593C17.7472 7.73686 17.6678 7.85582 17.5676 7.956C17.4674 8.05618 17.3485 8.13561 17.2176 8.18975C17.0866 8.24388 16.9463 8.27166 16.8046 8.27148Z" fill="#6C6E74"/>
</svg>
