<svg width="24" height="24" viewBox="0 0 24 24" fill="none" xmlns="http://www.w3.org/2000/svg">
<path d="M21 6.41929C20.3381 6.7126 19.627 6.91079 18.8794 7.00037C19.6508 6.53883 20.2278 5.81242 20.503 4.95668C19.7783 5.38713 18.9851 5.69012 18.158 5.85248C17.6018 5.25861 16.8651 4.86498 16.0623 4.73271C15.2594 4.60044 14.4354 4.73692 13.7181 5.12098C13.0007 5.50503 12.4303 6.11516 12.0953 6.85665C11.7602 7.59813 11.6794 8.42948 11.8652 9.22163C10.3968 9.1479 8.96033 8.76624 7.64898 8.10141C6.33762 7.43658 5.18071 6.50345 4.25332 5.36256C3.93623 5.90955 3.7539 6.54375 3.7539 7.21916C3.75354 7.82719 3.90328 8.42591 4.18981 8.96219C4.47634 9.49847 4.89082 9.95574 5.39646 10.2934C4.81005 10.2748 4.23658 10.1163 3.72377 9.83125V9.87881C3.72371 10.7316 4.0187 11.5581 4.55868 12.2182C5.09865 12.8782 5.85036 13.3311 6.68625 13.5001C6.14226 13.6473 5.57192 13.669 5.01832 13.5635C5.25416 14.2972 5.71355 14.9389 6.33219 15.3986C6.95082 15.8583 7.69772 16.1131 8.46833 16.1272C7.16018 17.1541 5.54461 17.7112 3.88153 17.7087C3.58693 17.7088 3.29258 17.6916 3 17.6572C4.68813 18.7426 6.65322 19.3186 8.66018 19.3164C15.454 19.3164 19.168 13.6895 19.168 8.8094C19.168 8.65086 19.164 8.49072 19.1569 8.33217C19.8793 7.80974 20.5029 7.1628 20.9984 6.42166L21 6.41929Z" fill="#6C6E74"/>
</svg>
