<svg width="24" height="24" viewBox="0 0 24 24" fill="none" xmlns="http://www.w3.org/2000/svg">
<path d="M18.1406 8.97656C18.2188 7.28906 17.5898 6.42188 16.2539 6.375C14.4492 6.3125 13.2305 7.33203 12.5977 9.43359C12.9414 9.28516 13.2617 9.21094 13.5586 9.21094C14.2227 9.21094 14.5117 9.58594 14.4258 10.3359C14.3945 10.7812 14.1055 11.4336 13.5586 12.293C13.0117 13.1523 12.6016 13.582 12.3281 13.582C11.9922 13.582 11.6719 12.9219 11.3672 11.6016C11.2656 11.1797 11.0898 10.1836 10.8398 8.61328C10.6055 7.13672 9.98047 6.44531 8.96484 6.53906C8.50391 6.59375 7.86328 6.98438 7.04297 7.71094L6.09375 8.55469L5.14453 9.39844L5.75391 10.1836C6.34766 9.77734 6.6875 9.57422 6.77344 9.57422C7.21875 9.57422 7.63672 10.2734 8.02734 11.6719C8.14453 12.1016 8.32031 12.7441 8.55469 13.5996C8.78906 14.4551 8.96484 15.0977 9.08203 15.5273C9.61328 16.9258 10.2539 17.625 11.0039 17.625C12.2305 17.625 13.7266 16.4766 15.4922 14.1797C17.2109 11.9688 18.0938 10.2344 18.1406 8.97656ZM21 6.375V17.625C21 18.5547 20.6699 19.3496 20.0098 20.0098C19.3496 20.6699 18.5547 21 17.625 21H6.375C5.44531 21 4.65039 20.6699 3.99023 20.0098C3.33008 19.3496 3 18.5547 3 17.625V6.375C3 5.44531 3.33008 4.65039 3.99023 3.99023C4.65039 3.33008 5.44531 3 6.375 3H17.625C18.5547 3 19.3496 3.33008 20.0098 3.99023C20.6699 4.65039 21 5.44531 21 6.375Z" fill="#6C6E74"/>
</svg>
